<mxfile host="Electron" modified="2023-08-29T14:47:47.061Z" agent="Mozilla/5.0 (Windows NT 10.0; Win64; x64) AppleWebKit/537.36 (KHTML, like Gecko) draw.io/21.6.8 Chrome/114.0.5735.289 Electron/25.5.0 Safari/537.36" etag="uSHpP9mHsNmTJ9Huy6rP" version="21.6.8" type="device">
  <diagram name="Page-1" id="IKiIpTTSyrAtnyIlYEhV">
    <mxGraphModel dx="4467" dy="3866" grid="1" gridSize="10" guides="1" tooltips="1" connect="1" arrows="1" fold="1" page="1" pageScale="1" pageWidth="827" pageHeight="1169" math="0" shadow="0">
      <root>
        <mxCell id="0" />
        <mxCell id="1" parent="0" />
        <mxCell id="6nlKqkMtpCk23vdFGuGb-1" value="" style="edgeStyle=orthogonalEdgeStyle;rounded=0;orthogonalLoop=1;jettySize=auto;html=1;" edge="1" parent="1" source="6nlKqkMtpCk23vdFGuGb-2" target="6nlKqkMtpCk23vdFGuGb-4">
          <mxGeometry relative="1" as="geometry" />
        </mxCell>
        <mxCell id="6nlKqkMtpCk23vdFGuGb-2" value="Begin" style="ellipse;whiteSpace=wrap;html=1;" vertex="1" parent="1">
          <mxGeometry x="370" y="80" width="100" height="40" as="geometry" />
        </mxCell>
        <mxCell id="6nlKqkMtpCk23vdFGuGb-3" value="" style="edgeStyle=orthogonalEdgeStyle;rounded=0;orthogonalLoop=1;jettySize=auto;html=1;" edge="1" parent="1" source="6nlKqkMtpCk23vdFGuGb-4" target="6nlKqkMtpCk23vdFGuGb-6">
          <mxGeometry relative="1" as="geometry" />
        </mxCell>
        <mxCell id="6nlKqkMtpCk23vdFGuGb-4" value="Go to mixr page" style="rounded=0;whiteSpace=wrap;html=1;" vertex="1" parent="1">
          <mxGeometry x="360" y="160" width="120" height="40" as="geometry" />
        </mxCell>
        <mxCell id="6nlKqkMtpCk23vdFGuGb-5" value="" style="edgeStyle=orthogonalEdgeStyle;rounded=0;orthogonalLoop=1;jettySize=auto;html=1;" edge="1" parent="1" source="6nlKqkMtpCk23vdFGuGb-6" target="6nlKqkMtpCk23vdFGuGb-8">
          <mxGeometry relative="1" as="geometry" />
        </mxCell>
        <mxCell id="6nlKqkMtpCk23vdFGuGb-6" value="Click invite button" style="rounded=0;whiteSpace=wrap;html=1;" vertex="1" parent="1">
          <mxGeometry x="360" y="240" width="120" height="40" as="geometry" />
        </mxCell>
        <mxCell id="6nlKqkMtpCk23vdFGuGb-7" value="" style="edgeStyle=orthogonalEdgeStyle;rounded=0;orthogonalLoop=1;jettySize=auto;html=1;" edge="1" parent="1" source="6nlKqkMtpCk23vdFGuGb-8" target="6nlKqkMtpCk23vdFGuGb-9">
          <mxGeometry relative="1" as="geometry" />
        </mxCell>
        <mxCell id="6nlKqkMtpCk23vdFGuGb-8" value="Redirected to invite page&amp;nbsp;" style="rounded=0;whiteSpace=wrap;html=1;" vertex="1" parent="1">
          <mxGeometry x="360" y="320" width="120" height="40" as="geometry" />
        </mxCell>
        <mxCell id="6nlKqkMtpCk23vdFGuGb-9" value="Click on invite by email tab" style="rounded=0;whiteSpace=wrap;html=1;" vertex="1" parent="1">
          <mxGeometry x="360" y="400" width="120" height="40" as="geometry" />
        </mxCell>
        <mxCell id="6nlKqkMtpCk23vdFGuGb-10" style="edgeStyle=orthogonalEdgeStyle;rounded=0;orthogonalLoop=1;jettySize=auto;html=1;entryX=0.5;entryY=0;entryDx=0;entryDy=0;" edge="1" parent="1" source="6nlKqkMtpCk23vdFGuGb-11">
          <mxGeometry relative="1" as="geometry">
            <mxPoint x="420" y="559.9999999999998" as="targetPoint" />
          </mxGeometry>
        </mxCell>
        <mxCell id="6nlKqkMtpCk23vdFGuGb-11" value="Type email(s)" style="shape=parallelogram;perimeter=parallelogramPerimeter;whiteSpace=wrap;html=1;fixedSize=1;" vertex="1" parent="1">
          <mxGeometry x="200" y="480" width="120" height="40" as="geometry" />
        </mxCell>
        <mxCell id="6nlKqkMtpCk23vdFGuGb-12" style="edgeStyle=orthogonalEdgeStyle;rounded=0;orthogonalLoop=1;jettySize=auto;html=1;entryX=0.5;entryY=0;entryDx=0;entryDy=0;" edge="1" parent="1" source="6nlKqkMtpCk23vdFGuGb-13" target="6nlKqkMtpCk23vdFGuGb-18">
          <mxGeometry relative="1" as="geometry">
            <mxPoint x="420" y="559.9999999999998" as="targetPoint" />
          </mxGeometry>
        </mxCell>
        <mxCell id="6nlKqkMtpCk23vdFGuGb-13" value="Import CSV file" style="shape=parallelogram;perimeter=parallelogramPerimeter;whiteSpace=wrap;html=1;fixedSize=1;" vertex="1" parent="1">
          <mxGeometry x="520" y="480" width="120" height="40" as="geometry" />
        </mxCell>
        <mxCell id="6nlKqkMtpCk23vdFGuGb-14" value="" style="endArrow=classic;html=1;rounded=0;entryX=0.5;entryY=0;entryDx=0;entryDy=0;exitX=0;exitY=0.5;exitDx=0;exitDy=0;" edge="1" parent="1" source="6nlKqkMtpCk23vdFGuGb-9" target="6nlKqkMtpCk23vdFGuGb-11">
          <mxGeometry width="50" height="50" relative="1" as="geometry">
            <mxPoint x="390" y="460" as="sourcePoint" />
            <mxPoint x="440" y="410" as="targetPoint" />
            <Array as="points">
              <mxPoint x="260" y="420" />
            </Array>
          </mxGeometry>
        </mxCell>
        <mxCell id="6nlKqkMtpCk23vdFGuGb-15" value="" style="endArrow=classic;html=1;rounded=0;exitX=1;exitY=0.5;exitDx=0;exitDy=0;entryX=0.5;entryY=0;entryDx=0;entryDy=0;" edge="1" parent="1" source="6nlKqkMtpCk23vdFGuGb-9" target="6nlKqkMtpCk23vdFGuGb-13">
          <mxGeometry width="50" height="50" relative="1" as="geometry">
            <mxPoint x="390" y="460" as="sourcePoint" />
            <mxPoint x="589" y="480" as="targetPoint" />
            <Array as="points">
              <mxPoint x="580" y="420" />
            </Array>
          </mxGeometry>
        </mxCell>
        <mxCell id="6nlKqkMtpCk23vdFGuGb-16" value="&lt;h1&gt;mixr: invite non workplace memebers&lt;/h1&gt;&lt;p&gt;&lt;br&gt;&lt;/p&gt;" style="text;html=1;strokeColor=none;fillColor=none;spacing=5;spacingTop=-20;whiteSpace=wrap;overflow=hidden;rounded=0;" vertex="1" parent="1">
          <mxGeometry x="184" y="-110" width="458.5" height="120" as="geometry" />
        </mxCell>
        <mxCell id="6nlKqkMtpCk23vdFGuGb-64" value="" style="edgeStyle=orthogonalEdgeStyle;rounded=0;orthogonalLoop=1;jettySize=auto;html=1;" edge="1" parent="1" source="6nlKqkMtpCk23vdFGuGb-18" target="6nlKqkMtpCk23vdFGuGb-63">
          <mxGeometry relative="1" as="geometry" />
        </mxCell>
        <mxCell id="6nlKqkMtpCk23vdFGuGb-18" value="click on &quot;send&quot;" style="rounded=0;whiteSpace=wrap;html=1;" vertex="1" parent="1">
          <mxGeometry x="360" y="560" width="120" height="40" as="geometry" />
        </mxCell>
        <mxCell id="6nlKqkMtpCk23vdFGuGb-19" value="" style="edgeStyle=orthogonalEdgeStyle;rounded=0;orthogonalLoop=1;jettySize=auto;html=1;" edge="1" parent="1" source="6nlKqkMtpCk23vdFGuGb-21" target="6nlKqkMtpCk23vdFGuGb-22">
          <mxGeometry relative="1" as="geometry" />
        </mxCell>
        <mxCell id="6nlKqkMtpCk23vdFGuGb-20" value="" style="edgeStyle=orthogonalEdgeStyle;rounded=0;orthogonalLoop=1;jettySize=auto;html=1;" edge="1" parent="1" source="6nlKqkMtpCk23vdFGuGb-21" target="6nlKqkMtpCk23vdFGuGb-26">
          <mxGeometry relative="1" as="geometry" />
        </mxCell>
        <mxCell id="6nlKqkMtpCk23vdFGuGb-21" value="invitee already group member?" style="rhombus;whiteSpace=wrap;html=1;" vertex="1" parent="1">
          <mxGeometry x="370" y="800" width="100" height="100" as="geometry" />
        </mxCell>
        <mxCell id="6nlKqkMtpCk23vdFGuGb-22" value="Error message &quot;User with email [EMAIL] is already a member of the group&quot;+ don&#39;t send invite" style="rounded=0;whiteSpace=wrap;html=1;" vertex="1" parent="1">
          <mxGeometry x="190" y="815" width="130" height="70" as="geometry" />
        </mxCell>
        <mxCell id="6nlKqkMtpCk23vdFGuGb-23" value="yes" style="text;html=1;strokeColor=none;fillColor=none;align=center;verticalAlign=middle;whiteSpace=wrap;rounded=0;" vertex="1" parent="1">
          <mxGeometry x="320" y="820" width="60" height="30" as="geometry" />
        </mxCell>
        <mxCell id="6nlKqkMtpCk23vdFGuGb-24" value="" style="edgeStyle=orthogonalEdgeStyle;rounded=0;orthogonalLoop=1;jettySize=auto;html=1;" edge="1" parent="1" source="6nlKqkMtpCk23vdFGuGb-26" target="6nlKqkMtpCk23vdFGuGb-27">
          <mxGeometry relative="1" as="geometry" />
        </mxCell>
        <mxCell id="6nlKqkMtpCk23vdFGuGb-25" value="" style="edgeStyle=orthogonalEdgeStyle;rounded=0;orthogonalLoop=1;jettySize=auto;html=1;" edge="1" parent="1" source="6nlKqkMtpCk23vdFGuGb-26" target="6nlKqkMtpCk23vdFGuGb-33">
          <mxGeometry relative="1" as="geometry" />
        </mxCell>
        <mxCell id="6nlKqkMtpCk23vdFGuGb-26" value="Invitee is WP member?" style="rhombus;whiteSpace=wrap;html=1;" vertex="1" parent="1">
          <mxGeometry x="520" y="800" width="100" height="100" as="geometry" />
        </mxCell>
        <mxCell id="6nlKqkMtpCk23vdFGuGb-27" value="Send normal group invite" style="rounded=0;whiteSpace=wrap;html=1;" vertex="1" parent="1">
          <mxGeometry x="660" y="830" width="120" height="40" as="geometry" />
        </mxCell>
        <mxCell id="6nlKqkMtpCk23vdFGuGb-28" value="" style="edgeStyle=orthogonalEdgeStyle;rounded=0;orthogonalLoop=1;jettySize=auto;html=1;" edge="1" parent="1" source="6nlKqkMtpCk23vdFGuGb-29" target="6nlKqkMtpCk23vdFGuGb-41">
          <mxGeometry relative="1" as="geometry" />
        </mxCell>
        <mxCell id="6nlKqkMtpCk23vdFGuGb-29" value="Send invite request to WP leadership team" style="rounded=0;whiteSpace=wrap;html=1;" vertex="1" parent="1">
          <mxGeometry x="510" y="1080" width="120" height="40" as="geometry" />
        </mxCell>
        <mxCell id="6nlKqkMtpCk23vdFGuGb-30" value="No" style="text;html=1;strokeColor=none;fillColor=none;align=center;verticalAlign=middle;whiteSpace=wrap;rounded=0;" vertex="1" parent="1">
          <mxGeometry x="560" y="900" width="60" height="30" as="geometry" />
        </mxCell>
        <mxCell id="6nlKqkMtpCk23vdFGuGb-31" value="" style="edgeStyle=orthogonalEdgeStyle;rounded=0;orthogonalLoop=1;jettySize=auto;html=1;" edge="1" parent="1" source="6nlKqkMtpCk23vdFGuGb-33" target="6nlKqkMtpCk23vdFGuGb-34">
          <mxGeometry relative="1" as="geometry" />
        </mxCell>
        <mxCell id="6nlKqkMtpCk23vdFGuGb-32" value="" style="edgeStyle=orthogonalEdgeStyle;rounded=0;orthogonalLoop=1;jettySize=auto;html=1;" edge="1" parent="1" source="6nlKqkMtpCk23vdFGuGb-33" target="6nlKqkMtpCk23vdFGuGb-29">
          <mxGeometry relative="1" as="geometry" />
        </mxCell>
        <mxCell id="6nlKqkMtpCk23vdFGuGb-33" value="Sender is WP manager?" style="rhombus;whiteSpace=wrap;html=1;" vertex="1" parent="1">
          <mxGeometry x="520" y="940" width="100" height="100" as="geometry" />
        </mxCell>
        <mxCell id="6nlKqkMtpCk23vdFGuGb-34" value="Send normal WP invite" style="rounded=0;whiteSpace=wrap;html=1;" vertex="1" parent="1">
          <mxGeometry x="340" y="970" width="120" height="40" as="geometry" />
        </mxCell>
        <mxCell id="6nlKqkMtpCk23vdFGuGb-35" value="yes" style="text;html=1;strokeColor=none;fillColor=none;align=center;verticalAlign=middle;whiteSpace=wrap;rounded=0;" vertex="1" parent="1">
          <mxGeometry x="460" y="960" width="60" height="30" as="geometry" />
        </mxCell>
        <mxCell id="6nlKqkMtpCk23vdFGuGb-36" value="No" style="text;html=1;strokeColor=none;fillColor=none;align=center;verticalAlign=middle;whiteSpace=wrap;rounded=0;" vertex="1" parent="1">
          <mxGeometry x="460" y="820" width="60" height="30" as="geometry" />
        </mxCell>
        <mxCell id="6nlKqkMtpCk23vdFGuGb-37" value="No" style="text;html=1;strokeColor=none;fillColor=none;align=center;verticalAlign=middle;whiteSpace=wrap;rounded=0;" vertex="1" parent="1">
          <mxGeometry x="550" y="1040" width="60" height="30" as="geometry" />
        </mxCell>
        <mxCell id="6nlKqkMtpCk23vdFGuGb-38" value="yes" style="text;html=1;strokeColor=none;fillColor=none;align=center;verticalAlign=middle;whiteSpace=wrap;rounded=0;" vertex="1" parent="1">
          <mxGeometry x="610" y="820" width="60" height="30" as="geometry" />
        </mxCell>
        <mxCell id="6nlKqkMtpCk23vdFGuGb-39" value="" style="edgeStyle=orthogonalEdgeStyle;rounded=0;orthogonalLoop=1;jettySize=auto;html=1;" edge="1" parent="1" source="6nlKqkMtpCk23vdFGuGb-41" target="6nlKqkMtpCk23vdFGuGb-43">
          <mxGeometry relative="1" as="geometry" />
        </mxCell>
        <mxCell id="6nlKqkMtpCk23vdFGuGb-40" value="" style="edgeStyle=orthogonalEdgeStyle;rounded=0;orthogonalLoop=1;jettySize=auto;html=1;" edge="1" parent="1" source="6nlKqkMtpCk23vdFGuGb-41" target="6nlKqkMtpCk23vdFGuGb-48">
          <mxGeometry relative="1" as="geometry" />
        </mxCell>
        <mxCell id="6nlKqkMtpCk23vdFGuGb-41" value="Workplace manager validates ?" style="rhombus;whiteSpace=wrap;html=1;" vertex="1" parent="1">
          <mxGeometry x="510" y="1190" width="120" height="120" as="geometry" />
        </mxCell>
        <mxCell id="6nlKqkMtpCk23vdFGuGb-42" value="" style="edgeStyle=orthogonalEdgeStyle;rounded=0;orthogonalLoop=1;jettySize=auto;html=1;" edge="1" parent="1" source="6nlKqkMtpCk23vdFGuGb-43" target="6nlKqkMtpCk23vdFGuGb-46">
          <mxGeometry relative="1" as="geometry" />
        </mxCell>
        <mxCell id="6nlKqkMtpCk23vdFGuGb-43" value="Cancel invitation" style="rounded=0;whiteSpace=wrap;html=1;" vertex="1" parent="1">
          <mxGeometry x="320" y="1230" width="120" height="40" as="geometry" />
        </mxCell>
        <mxCell id="6nlKqkMtpCk23vdFGuGb-44" value="No" style="text;html=1;strokeColor=none;fillColor=none;align=center;verticalAlign=middle;whiteSpace=wrap;rounded=0;" vertex="1" parent="1">
          <mxGeometry x="450" y="1220" width="60" height="30" as="geometry" />
        </mxCell>
        <mxCell id="6nlKqkMtpCk23vdFGuGb-45" style="edgeStyle=orthogonalEdgeStyle;rounded=0;orthogonalLoop=1;jettySize=auto;html=1;" edge="1" parent="1" source="6nlKqkMtpCk23vdFGuGb-46">
          <mxGeometry relative="1" as="geometry">
            <mxPoint x="250" y="1670" as="targetPoint" />
          </mxGeometry>
        </mxCell>
        <mxCell id="6nlKqkMtpCk23vdFGuGb-46" value="Notify invitation sender" style="rounded=0;whiteSpace=wrap;html=1;" vertex="1" parent="1">
          <mxGeometry x="320" y="1310" width="120" height="40" as="geometry" />
        </mxCell>
        <mxCell id="6nlKqkMtpCk23vdFGuGb-47" value="" style="edgeStyle=orthogonalEdgeStyle;rounded=0;orthogonalLoop=1;jettySize=auto;html=1;" edge="1" parent="1" source="6nlKqkMtpCk23vdFGuGb-48" target="6nlKqkMtpCk23vdFGuGb-52">
          <mxGeometry relative="1" as="geometry" />
        </mxCell>
        <mxCell id="6nlKqkMtpCk23vdFGuGb-48" value="Invitee receives workplace invite&amp;nbsp;" style="rounded=0;whiteSpace=wrap;html=1;" vertex="1" parent="1">
          <mxGeometry x="510" y="1370" width="120" height="40" as="geometry" />
        </mxCell>
        <mxCell id="6nlKqkMtpCk23vdFGuGb-49" value="Yes" style="text;html=1;strokeColor=none;fillColor=none;align=center;verticalAlign=middle;whiteSpace=wrap;rounded=0;" vertex="1" parent="1">
          <mxGeometry x="565" y="1320" width="60" height="30" as="geometry" />
        </mxCell>
        <mxCell id="6nlKqkMtpCk23vdFGuGb-50" style="edgeStyle=orthogonalEdgeStyle;rounded=0;orthogonalLoop=1;jettySize=auto;html=1;exitX=0;exitY=0.5;exitDx=0;exitDy=0;entryX=0.5;entryY=1;entryDx=0;entryDy=0;" edge="1" parent="1" source="6nlKqkMtpCk23vdFGuGb-52" target="6nlKqkMtpCk23vdFGuGb-46">
          <mxGeometry relative="1" as="geometry" />
        </mxCell>
        <mxCell id="6nlKqkMtpCk23vdFGuGb-51" value="" style="edgeStyle=orthogonalEdgeStyle;rounded=0;orthogonalLoop=1;jettySize=auto;html=1;" edge="1" parent="1" source="6nlKqkMtpCk23vdFGuGb-52" target="6nlKqkMtpCk23vdFGuGb-55">
          <mxGeometry relative="1" as="geometry" />
        </mxCell>
        <mxCell id="6nlKqkMtpCk23vdFGuGb-52" value="Joins workplace ?" style="rhombus;whiteSpace=wrap;html=1;" vertex="1" parent="1">
          <mxGeometry x="515" y="1450" width="110" height="80" as="geometry" />
        </mxCell>
        <mxCell id="6nlKqkMtpCk23vdFGuGb-53" value="No" style="text;html=1;strokeColor=none;fillColor=none;align=center;verticalAlign=middle;whiteSpace=wrap;rounded=0;" vertex="1" parent="1">
          <mxGeometry x="430" y="1460" width="60" height="30" as="geometry" />
        </mxCell>
        <mxCell id="6nlKqkMtpCk23vdFGuGb-54" value="" style="edgeStyle=orthogonalEdgeStyle;rounded=0;orthogonalLoop=1;jettySize=auto;html=1;" edge="1" parent="1" source="6nlKqkMtpCk23vdFGuGb-55" target="6nlKqkMtpCk23vdFGuGb-57">
          <mxGeometry relative="1" as="geometry" />
        </mxCell>
        <mxCell id="6nlKqkMtpCk23vdFGuGb-55" value="Invitee joins group" style="rounded=0;whiteSpace=wrap;html=1;" vertex="1" parent="1">
          <mxGeometry x="510" y="1570" width="120" height="40" as="geometry" />
        </mxCell>
        <mxCell id="6nlKqkMtpCk23vdFGuGb-56" style="edgeStyle=orthogonalEdgeStyle;rounded=0;orthogonalLoop=1;jettySize=auto;html=1;exitX=0;exitY=0.5;exitDx=0;exitDy=0;entryX=1;entryY=0.5;entryDx=0;entryDy=0;" edge="1" parent="1" source="6nlKqkMtpCk23vdFGuGb-57" target="6nlKqkMtpCk23vdFGuGb-58">
          <mxGeometry relative="1" as="geometry">
            <mxPoint x="300" y="1690" as="targetPoint" />
            <Array as="points" />
          </mxGeometry>
        </mxCell>
        <mxCell id="6nlKqkMtpCk23vdFGuGb-57" value="Notify invitee for joining group" style="rounded=0;whiteSpace=wrap;html=1;" vertex="1" parent="1">
          <mxGeometry x="510" y="1650" width="120" height="40" as="geometry" />
        </mxCell>
        <mxCell id="6nlKqkMtpCk23vdFGuGb-58" value="End" style="ellipse;whiteSpace=wrap;html=1;" vertex="1" parent="1">
          <mxGeometry x="200" y="1650" width="100" height="40" as="geometry" />
        </mxCell>
        <mxCell id="6nlKqkMtpCk23vdFGuGb-59" value="Yes" style="text;html=1;strokeColor=none;fillColor=none;align=center;verticalAlign=middle;whiteSpace=wrap;rounded=0;" vertex="1" parent="1">
          <mxGeometry x="565" y="1530" width="60" height="30" as="geometry" />
        </mxCell>
        <mxCell id="6nlKqkMtpCk23vdFGuGb-60" style="edgeStyle=orthogonalEdgeStyle;rounded=0;orthogonalLoop=1;jettySize=auto;html=1;entryX=0.5;entryY=0;entryDx=0;entryDy=0;" edge="1" parent="1" source="6nlKqkMtpCk23vdFGuGb-61" target="6nlKqkMtpCk23vdFGuGb-2">
          <mxGeometry relative="1" as="geometry" />
        </mxCell>
        <mxCell id="6nlKqkMtpCk23vdFGuGb-61" value="SSO &lt;br&gt;organization ?" style="rhombus;whiteSpace=wrap;html=1;" vertex="1" parent="1">
          <mxGeometry x="370" y="-40" width="100" height="90" as="geometry" />
        </mxCell>
        <mxCell id="6nlKqkMtpCk23vdFGuGb-62" value="No" style="text;html=1;strokeColor=none;fillColor=none;align=center;verticalAlign=middle;whiteSpace=wrap;rounded=0;" vertex="1" parent="1">
          <mxGeometry x="410" y="50" width="60" height="30" as="geometry" />
        </mxCell>
        <mxCell id="6nlKqkMtpCk23vdFGuGb-65" value="" style="edgeStyle=orthogonalEdgeStyle;rounded=0;orthogonalLoop=1;jettySize=auto;html=1;exitX=0.5;exitY=1;exitDx=0;exitDy=0;" edge="1" parent="1" source="6nlKqkMtpCk23vdFGuGb-63" target="6nlKqkMtpCk23vdFGuGb-21">
          <mxGeometry relative="1" as="geometry">
            <mxPoint x="420.0666666666666" y="769.9333333333329" as="sourcePoint" />
          </mxGeometry>
        </mxCell>
        <mxCell id="6nlKqkMtpCk23vdFGuGb-69" value="" style="edgeStyle=orthogonalEdgeStyle;rounded=0;orthogonalLoop=1;jettySize=auto;html=1;" edge="1" parent="1" source="6nlKqkMtpCk23vdFGuGb-63" target="6nlKqkMtpCk23vdFGuGb-68">
          <mxGeometry relative="1" as="geometry" />
        </mxCell>
        <mxCell id="6nlKqkMtpCk23vdFGuGb-63" value="invitee&lt;br&gt;&amp;nbsp;already mixr participant?" style="rhombus;whiteSpace=wrap;html=1;" vertex="1" parent="1">
          <mxGeometry x="365" y="640" width="110" height="110" as="geometry" />
        </mxCell>
        <mxCell id="6nlKqkMtpCk23vdFGuGb-68" value="Error message &quot;User with email [EMAIL] is already participation to the mixr&quot; + don&#39;t send invite" style="rounded=0;whiteSpace=wrap;html=1;" vertex="1" parent="1">
          <mxGeometry x="190" y="660" width="130" height="70" as="geometry" />
        </mxCell>
        <mxCell id="6nlKqkMtpCk23vdFGuGb-70" value="yes" style="text;html=1;strokeColor=none;fillColor=none;align=center;verticalAlign=middle;whiteSpace=wrap;rounded=0;" vertex="1" parent="1">
          <mxGeometry x="320" y="670" width="60" height="30" as="geometry" />
        </mxCell>
        <mxCell id="6nlKqkMtpCk23vdFGuGb-71" value="No" style="text;html=1;strokeColor=none;fillColor=none;align=center;verticalAlign=middle;whiteSpace=wrap;rounded=0;" vertex="1" parent="1">
          <mxGeometry x="400" y="750" width="60" height="30" as="geometry" />
        </mxCell>
      </root>
    </mxGraphModel>
  </diagram>
</mxfile>
